<?xml version="1.0" encoding="utf-8"?>
<!-- Generator: Adobe Illustrator 25.1.0, SVG Export Plug-In . SVG Version: 6.00 Build 0)  -->
<svg version="1.1" id="logo-thome" xmlns="http://www.w3.org/2000/svg" xmlns:xlink="http://www.w3.org/1999/xlink" x="0px" y="0px"
	 viewBox="0 0 456.7 107.2" style="enable-background:new 0 0 456.7 107.2;" xml:space="preserve">
<g id="text-thome">
	<rect x="137" y="56.8" fill="#787878" width="312.3" height="1.6"/>
	<g>
		<path d="M141.1,68.3h9.2v2.1h-7v4.2h6v2h-6V81h7v2.1h-9.2V68.3z"/>
		<path d="M170.8,68.3h2l6.5,10.5h0V68.3h2.2v14.8h-2.1L173,72.6h0v10.5h-2.2V68.3z"/>
		<path d="M205.5,70.3h-3.9v-2h10v2h-3.9v12.8h-2.2V70.3z"/>
		<path d="M231.6,68.3h9.2v2.1h-7v4.2h6v2h-6V81h7v2.1h-9.2V68.3z"/>
		<path d="M261.2,68.3h5.6c1.2,0,2.2,0.3,2.9,1c0.9,0.7,1.4,1.8,1.4,3.2c0,2-0.9,3.4-2.8,4.1l3.3,6.6h-2.6l-3-6.3h-2.8v6.3h-2.2
			V68.3z M263.4,74.8h3.3c0.8,0,1.4-0.3,1.8-0.7c0.4-0.4,0.6-1,0.6-1.6c0-0.8-0.3-1.3-0.7-1.7c-0.4-0.3-0.9-0.5-1.6-0.5h-3.4V74.8z"
			/>
		<path d="M292,68.3h5.2c0.6,0,1.1,0.1,1.6,0.2c0.5,0.1,1.1,0.4,1.6,0.9c0.5,0.3,0.8,0.8,1.1,1.4c0.3,0.6,0.4,1.3,0.4,2.1
			c0,1.1-0.4,2.1-1.1,3c-0.8,0.9-1.9,1.4-3.4,1.5h-3.3v5.8H292V68.3z M294.1,75.2h3.2c0.8,0,1.4-0.3,1.8-0.8c0.4-0.5,0.6-1,0.6-1.6
			c0-0.5-0.1-0.9-0.2-1.3c-0.2-0.3-0.4-0.5-0.7-0.7c-0.4-0.3-1-0.4-1.6-0.4h-3.1V75.2z"/>
		<path d="M322.4,68.3h5.6c1.2,0,2.2,0.3,2.9,1c0.9,0.7,1.4,1.8,1.4,3.2c0,2-0.9,3.4-2.8,4.1l3.3,6.6h-2.6l-3-6.3h-2.8v6.3h-2.2
			V68.3z M324.6,74.8h3.3c0.8,0,1.4-0.3,1.8-0.7c0.4-0.4,0.6-1,0.6-1.6c0-0.8-0.3-1.3-0.7-1.7c-0.4-0.3-0.9-0.5-1.6-0.5h-3.4V74.8z"
			/>
		<path d="M353.1,68.3h2.2v14.8h-2.2V68.3z"/>
		<path d="M376.8,79.5c1.1,1,2.5,1.5,4.1,1.5c1.9,0,2.8-0.7,2.8-2.1c0-1.1-0.6-1.8-1.9-2c-0.6-0.1-1.2-0.2-1.9-0.3
			c-1.2-0.2-2.2-0.7-2.8-1.4c-0.7-0.8-1-1.7-1-2.7c0-1.3,0.4-2.3,1.2-3.1c0.8-0.8,1.9-1.2,3.4-1.2c1.8,0,3.3,0.6,4.6,1.5l-1.2,1.8
			c-1.1-0.7-2.3-1.1-3.6-1.1c-0.7,0-1.2,0.2-1.7,0.5c-0.5,0.4-0.7,0.9-0.7,1.6c0,0.4,0.2,0.8,0.5,1.2c0.3,0.4,0.8,0.6,1.5,0.7
			c0.4,0.1,0.9,0.1,1.6,0.2c1.3,0.2,2.3,0.7,3,1.5c0.6,0.8,1,1.7,1,2.8c-0.1,2.8-1.7,4.3-5,4.3c-2.1,0-3.9-0.7-5.5-2L376.8,79.5z"/>
		<path d="M406.6,68.3h9.2v2.1h-7v4.2h6v2h-6V81h7v2.1h-9.2V68.3z"/>
		<path d="M436.4,79.5c1.1,1,2.5,1.5,4.1,1.5c1.9,0,2.8-0.7,2.8-2.1c0-1.1-0.6-1.8-1.9-2c-0.6-0.1-1.2-0.2-1.9-0.3
			c-1.2-0.2-2.2-0.7-2.8-1.4c-0.7-0.8-1-1.7-1-2.7c0-1.3,0.4-2.3,1.2-3.1c0.8-0.8,1.9-1.2,3.4-1.2c1.8,0,3.3,0.6,4.6,1.5l-1.2,1.8
			c-1.1-0.7-2.3-1.1-3.6-1.1c-0.7,0-1.2,0.2-1.7,0.5c-0.5,0.4-0.7,0.9-0.7,1.6c0,0.4,0.2,0.8,0.5,1.2c0.3,0.4,0.8,0.6,1.5,0.7
			c0.4,0.1,0.9,0.1,1.6,0.2c1.3,0.2,2.3,0.7,3,1.5c0.6,0.8,1,1.7,1,2.8c-0.1,2.8-1.7,4.3-5,4.3c-2.1,0-3.9-0.7-5.5-2L436.4,79.5z"/>
	</g>
	<g>
		<path d="M150.5,42c0,1.8,0.1,3,0.3,4.4h-5.1c0.2-1.4,0.3-2.6,0.3-4.4V23.7h-4.5c-2,0-3.4,0.1-4.6,0.2v-4.5
			c1.2,0.2,2.7,0.2,4.6,0.2h13.3c2.4,0,3.7-0.1,4.9-0.2v4.5c-1.2-0.2-2.5-0.2-4.9-0.2h-4.2V42z"/>
		<path d="M187.2,19.6c-0.2,1.4-0.3,2.4-0.3,4.3V42c0,1.9,0.1,2.9,0.3,4.3h-5c0.2-1.3,0.3-2.4,0.3-4.3v-7.6H169V42
			c0,1.9,0.1,3,0.3,4.3h-5c0.2-1.3,0.3-2.4,0.3-4.3V24c0-2-0.1-3-0.3-4.3h5c-0.2,1.4-0.3,2.5-0.3,4.3v6.5h13.5V24
			c0-1.9-0.1-3.1-0.3-4.3H187.2z"/>
		<path d="M214.1,22.5c2.5,2.5,3.8,6.1,3.8,10.5c0,8.5-4.9,14-12.6,14c-7.6,0-12.5-5.5-12.5-14c0-4.3,1.3-8.1,3.8-10.5
			c2.3-2.3,5.1-3.4,8.7-3.4C208.9,19.1,211.8,20.2,214.1,22.5z M213.1,32.9c0-3.4-0.9-6.1-2.7-7.8c-1.4-1.3-3.2-2-5.2-2
			c-4.8,0-7.9,3.8-7.9,9.9c0,3.4,1,6.2,2.7,7.9c1.4,1.3,3.2,2,5.2,2C210.2,43,213.1,39.1,213.1,32.9z"/>
		<path d="M235.6,46.4c-0.2-1.1-0.7-2.7-1.5-4.5l-4.8-11.5c-0.6-1.5-0.9-2.4-1.7-5.1c0.1,1.8,0.3,4.5,0.3,5.3v11
			c0,2.3,0.1,3.6,0.3,4.9h-4.7c0.2-1.3,0.3-2.7,0.3-4.9V24.6c0-2.2-0.1-3.6-0.3-5h6.1c0.2,1.2,0.7,2.6,1.2,4l6.8,16.7l6.8-16.7
			c0.7-1.6,1-2.7,1.2-4h6.2c-0.2,1.6-0.3,2.7-0.3,5v16.9c0,2.5,0.1,3.7,0.3,4.9h-4.7c0.2-1.4,0.3-2.6,0.3-4.9V30.3
			c0.1-2.9,0.2-4.6,0.3-5.1c-0.4,1.8-1.1,3.7-1.5,4.9l-5,11.8c-0.7,1.6-1.3,3.5-1.5,4.5H235.6z"/>
		<path d="M277.3,46.6c-1.2-0.2-2.3-0.2-4.3-0.2h-10.5c-2,0-2.9,0-4.3,0.1c0.2-1.3,0.3-2.5,0.3-4.4V23.9c0-1.7-0.1-2.8-0.3-4.3
			c1.3,0.1,2.2,0.1,4.3,0.1h10.1c1.7,0,2.8-0.1,4.3-0.2v4.4c-1.3-0.2-2.4-0.2-4.3-0.2H263v6.9h8.2c1.7,0,2.9-0.1,4.4-0.2v4.4
			c-1.4-0.2-2.3-0.2-4.4-0.2H263v7.9H273c1.9,0,2.9-0.1,4.3-0.2V46.6z"/>
		<path d="M314.8,46.6c-1.2-0.2-2.4-0.2-4.8-0.2h-9.9c-1.9,0-3.1,0-4.3,0.1c0.2-1.2,0.3-2.5,0.3-4.4V24.6c0-2.3-0.1-3.5-0.3-5h5.1
			c-0.2,1.4-0.3,2.5-0.3,4.9v17.7h9.4c2.3,0,3.4-0.1,4.8-0.2V46.6z"/>
		<path d="M338.2,46.6c-1.2-0.2-2.3-0.2-4.3-0.2h-10.5c-2,0-2.9,0-4.3,0.1c0.2-1.3,0.3-2.5,0.3-4.4V23.9c0-1.7-0.1-2.8-0.3-4.3
			c1.3,0.1,2.2,0.1,4.3,0.1h10.1c1.7,0,2.8-0.1,4.3-0.2v4.4c-1.3-0.2-2.4-0.2-4.3-0.2h-9.7v6.9h8.2c1.7,0,2.9-0.1,4.4-0.2v4.4
			c-1.4-0.2-2.3-0.2-4.4-0.2h-8.2v7.9h10.1c1.9,0,2.9-0.1,4.3-0.2V46.6z"/>
		<path d="M365.7,39.5c0,2,0,2.9,0.2,4.4c-2.4,1.3-3.6,1.8-5.4,2.3c-1.5,0.4-3.3,0.6-4.9,0.6c-4.2,0-7.4-1.3-9.5-3.9
			c-2-2.4-3.2-6-3.2-10.2c0-5.3,1.9-9.4,5.4-11.8c2.1-1.4,4.4-2,7.5-2c3.1,0,5.8,1,7.7,2.9c1.2,1.1,1.8,2.1,2.5,4l-4.6,1.2
			c-1.1-3.1-2.7-4.1-6.2-4.1c-2,0-3.8,0.7-5.1,2c-1.7,1.7-2.5,4.2-2.5,7.7c0,3.5,0.8,6.1,2.3,7.9c1.4,1.6,3.2,2.3,5.8,2.3
			c2.3,0,4-0.4,5.7-1.5v-5.5h-1.8c-1.7,0-2.4,0-3.4,0.2v-4.3c1.2,0.2,1.9,0.2,4,0.2h1.7c1.5,0,2.5,0,4-0.1c-0.2,1.2-0.2,2.3-0.2,4.2
			V39.5z"/>
		<path d="M390.8,46.4c-0.2-1.1-0.6-2.6-0.9-3.5l-1.3-3.7h-10.7l-1.3,3.7c-0.6,1.6-0.7,2.1-1,3.5h-5.5c0.5-0.9,1.2-2.4,1.8-4
			l7.4-19.4c0.6-1.7,0.9-2.5,1.1-3.4h5.8c0.2,0.8,0.4,1.3,1.1,3.4l7.5,19.4c0.8,2.1,1.2,3.1,1.7,4H390.8z M383.8,25.4
			c-0.1-0.4-0.2-0.8-0.6-1.9c-0.5,1.6-0.5,1.6-0.6,1.9l-3.5,9.9h8.3L383.8,25.4z"/>
		<path d="M423.6,38.2c-0.6,2.4-1.2,3.7-2.2,5c-1.9,2.4-5.1,3.7-9.2,3.7c-3.7,0-6.6-1.1-8.6-3.2c-2.4-2.5-3.7-6.2-3.7-10.5
			c0-4.4,1.4-8.3,3.9-10.8c2-2,5-3.2,8.4-3.2c2.6,0,4.6,0.5,6.4,1.6c1.5,0.9,2.7,2.2,3.6,3.7c0.4,0.7,0.6,1.3,1,2.6l-4.7,1.1
			c-0.5-1.5-0.8-2.1-1.4-2.9c-1.1-1.4-2.8-2.1-4.9-2.1c-4.8,0-7.7,3.7-7.7,9.9c0,6.1,3,10,7.7,10c2.4,0,4.4-0.9,5.4-2.5
			c0.6-0.8,0.8-1.5,1.1-3.1L423.6,38.2z"/>
		<path d="M435.2,46.4c0.2-1.3,0.3-2.6,0.3-4.3v-6.6l-7.8-12.3c-0.5-0.8-1.3-1.9-2.4-3.5h5.9c0.3,0.9,0.7,1.8,1.6,3.3l4.9,8.3
			l4.9-8.2c0.8-1.4,1.3-2.5,1.6-3.3h5.8c-0.5,0.7-1.7,2.5-2.3,3.5L440,35.4V42c0,1.7,0.1,3.1,0.3,4.3H435.2z"/>
	</g>
</g>
<g id="icon-thome">
	<path fill="#7FD0DA" d="M60,106.2H49.1c-1.1,0-2-0.9-2-2v-56c0-1.1,0.9-2,2-2H60c1.1,0,2,0.9,2,2v56C61.9,105.3,61.1,106.2,60,106.2z"
		/>
	<path fill="#7FD0DA" d="M15.7,53.6c0-21.4,17.4-38.8,38.8-38.8c16.2,0,30.1,9.9,35.9,24h15.6C99.6,16.4,79,0,54.5,0
		C25,0,0.9,24,0.9,53.6c0,25,17.1,46,40.3,51.9V90.1C26.4,84.6,15.7,70.3,15.7,53.6z"/>
	<path fill="#7FD0DA" d="M91.5,65.4c-5,15.6-19.7,27-37,27c-2.5,0-5-0.3-7.4-0.7v15c2.4,0.3,4.9,0.5,7.4,0.5
		c25.5,0,46.9-17.9,52.3-41.8H91.5z"/>
	<path fill="#7FD0DA" d="M26.9,57.5V46.7c0-1.1,0.9-2,2-2h76.2c1.1,0,2,0.9,2,2v10.8c0,1.1-0.9,2-2,2H28.9
		C27.8,59.5,26.9,58.6,26.9,57.5z"/>
	<path fill="#7FD0DA" d="M60.7,38.8H49.9c-1.1,0-2-0.9-2-2V26c0-1.1,0.9-2,2-2h10.8c1.1,0,2,0.9,2,2v10.8
		C62.7,37.9,61.8,38.8,60.7,38.8z"/>
</g>
</svg>
