<?xml version="1.0" encoding="utf-8"?>
<!-- Generator: Adobe Illustrator 25.3.0, SVG Export Plug-In . SVG Version: 6.00 Build 0)  -->
<svg version="1.1" id="Layer_1" xmlns="http://www.w3.org/2000/svg" xmlns:xlink="http://www.w3.org/1999/xlink" x="0px" y="0px"
	 viewBox="0 0 64 64" style="enable-background:new 0 0 64 64;" xml:space="preserve">
<style type="text/css">
	.st0{fill:none;stroke:#000000;stroke-width:2;stroke-miterlimit:10;}
</style>
<path class="st0" d="M32,0.9c17.2,0,31.1,13.9,31.1,31.1c0,17.2-13.9,31.1-31.1,31.1C14.8,63.1,0.9,49.2,0.9,32
	C0.9,14.8,14.8,0.9,32,0.9z"/>
<g>
	<path d="M8.4,19.7h5.9l2.3,10l2.3-10h5.9v16.4h-3.7V23.6l-2.8,12.5h-3.3l-2.8-12.5v12.5H8.4V19.7z"/>
	<path d="M27.6,19.7H36c1.4,0,2.5,0.4,3.2,1.2c0.7,0.8,1.1,1.8,1.1,2.9c0,1-0.3,1.8-0.8,2.5c-0.4,0.5-0.9,0.8-1.6,1.1
		c1,0.3,1.8,0.8,2.3,1.5c0.5,0.7,0.7,1.6,0.7,2.6c0,0.9-0.2,1.6-0.5,2.3s-0.8,1.2-1.4,1.6c-0.4,0.2-0.9,0.4-1.7,0.5
		c-1,0.1-1.7,0.2-2,0.2h-7.7V19.7z M32.2,26.1h2c0.7,0,1.2-0.1,1.5-0.4c0.3-0.3,0.4-0.7,0.4-1.2c0-0.5-0.1-0.9-0.4-1.1
		c-0.3-0.3-0.8-0.4-1.4-0.4h-2V26.1z M32.2,32.5h2.3c0.8,0,1.3-0.2,1.6-0.5c0.3-0.3,0.5-0.7,0.5-1.2c0-0.5-0.2-0.9-0.5-1.2
		s-0.9-0.4-1.6-0.4h-2.3V32.5z"/>
	<path d="M43.4,19.7h12v3.5h-7.5v2.6h7v3.3h-7v3.2h7.7v3.7H43.4V19.7z"/>
</g>
<g>
	<path d="M12.3,42c-0.2,0.8-0.9,1.4-2.1,1.4c-1.5,0-2.3-1.1-2.3-2.4c0-1.3,0.8-2.4,2.4-2.4c1.2,0,1.9,0.6,2,1.4h-0.7
		c-0.2-0.5-0.6-0.9-1.4-0.9c-1.1,0-1.6,0.9-1.6,1.9c0,0.9,0.4,1.9,1.6,1.9c0.8,0,1.1-0.4,1.3-0.9H12.3z"/>
	<path d="M18.1,41.1h-2.6v1.7h2.8l-0.1,0.5h-3.4v-4.7h3.4v0.5h-2.7v1.4h2.6V41.1z"/>
	<path d="M21.4,41.3v2.1h-0.7v-4.7h2c1.1,0,1.6,0.5,1.6,1.3c0,0.6-0.4,1-0.9,1.1c0.4,0.1,0.8,0.4,0.8,1.2v0.2c0,0.3,0,0.7,0.1,0.9
		h-0.7c-0.1-0.2-0.1-0.6-0.1-1v-0.1c0-0.7-0.2-1-1.1-1H21.4z M21.4,40.7h1.1c0.8,0,1.1-0.3,1.1-0.8c0-0.5-0.4-0.8-1.1-0.8h-1.2V40.7
		z"/>
	<path d="M28.1,39.2h-1.7v-0.5h4v0.5h-1.7v4.2h-0.7V39.2z"/>
	<path d="M33.4,38.6v4.7h-0.7v-4.7H33.4z"/>
	<path d="M36.3,38.6h3.3v0.5H37v1.5h2.5v0.5H37v2.1h-0.7V38.6z"/>
	<path d="M42.7,38.6v4.7H42v-4.7H42.7z"/>
	<path d="M48.9,41.1h-2.6v1.7h2.8L49,43.3h-3.4v-4.7H49v0.5h-2.7v1.4h2.6V41.1z"/>
	<path d="M51.5,38.6h1.9c1.5,0,2.4,0.9,2.4,2.3c0,1.4-1,2.4-2.5,2.4h-1.8V38.6z M52.2,42.8h1.1c1.2,0,1.8-0.8,1.8-1.9
		c0-0.9-0.5-1.8-1.8-1.8h-1.1V42.8z"/>
</g>
</svg>
